<svg width="18" height="18" viewBox="0 0 18 18" fill="none" xmlns="http://www.w3.org/2000/svg">
<path d="M13.929 2.946C13.0711 2.08818 11.679 2.08818 10.8211 2.946L4.35239 9.41475C2.87231 10.8948 2.87231 13.2925 4.35239 14.7726C5.83247 16.2526 8.23013 16.2526 9.71021 14.7726L15.054 9.42881C15.4372 9.04561 16.0629 9.04561 16.4461 9.42881C16.8293 9.81201 16.8293 10.4378 16.4461 10.821L11.1024 16.1647C8.85239 18.4147 5.21021 18.4147 2.96021 16.1647C0.710205 13.9147 0.710205 10.2726 2.96021 8.02256L9.42896 1.55381C11.0567 -0.0739258 13.6934 -0.0739258 15.3211 1.55381C16.9489 3.18154 16.9489 5.81826 15.3211 7.446L9.13364 13.6335C8.12817 14.639 6.49692 14.639 5.49146 13.6335C4.48599 12.628 4.48599 10.9968 5.49146 9.99131L10.554 4.92881C10.9372 4.54561 11.5629 4.54561 11.9461 4.92881C12.3293 5.31201 12.3293 5.93779 11.9461 6.321L6.88364 11.3835C6.6481 11.619 6.6481 12.0058 6.88364 12.2413C7.11919 12.4769 7.50591 12.4769 7.74146 12.2413L13.929 6.05381C14.7868 5.196 14.7868 3.80381 13.929 2.946Z" fill="#6F6F70"/>
</svg>
