<svg width="23" height="21" viewBox="0 0 23 21" fill="none" xmlns="http://www.w3.org/2000/svg">
<path d="M19.9269 9.747V14.9136C19.9269 18.358 19.0168 19.2191 15.3764 19.2191H6.27519C2.63473 19.2191 1.72461 18.358 1.72461 14.9136V6.30259C1.72461 2.85817 2.63473 1.99707 6.27519 1.99707H7.64037C9.00554 1.99707 9.30588 2.37596 9.82465 3.03039L11.1898 4.7526C11.5357 5.18315 11.7359 5.44148 12.646 5.44148H15.3764C19.0168 5.44148 19.9269 6.30259 19.9269 9.747Z" stroke="#5C5967" stroke-miterlimit="10"/>
<path d="M7.64014 1.99707H15.8312C17.6514 1.99707 18.5615 2.85817 18.5615 4.58038V5.7687" stroke="#5C5967" stroke-miterlimit="10" stroke-linecap="round" stroke-linejoin="round"/>
<path d="M13.1009 13.1914H8.55029" stroke="#5C5967" stroke-miterlimit="10" stroke-linecap="round" stroke-linejoin="round"/>
</svg>
