<svg width="21" height="21" viewBox="0 0 21 21" fill="none" xmlns="http://www.w3.org/2000/svg">
<path d="M18.8002 9.57087V14.6503C18.8002 18.0367 17.9712 18.8832 14.6555 18.8832H6.3663C3.0506 18.8832 2.22168 18.0367 2.22168 14.6503V6.18455C2.22168 2.79824 3.0506 1.95166 6.3663 1.95166H7.60969C8.85307 1.95166 9.12662 2.32415 9.5991 2.96755L10.8425 4.66071C11.1575 5.084 11.3398 5.33798 12.1688 5.33798H14.6555C17.9712 5.33798 18.8002 6.18455 18.8002 9.57087Z" stroke="#5C5967" stroke-miterlimit="10"/>
<path d="M7.61035 1.95166H15.0707C16.7285 1.95166 17.5574 2.79824 17.5574 4.4914V5.65968" stroke="#5C5967" stroke-miterlimit="10" stroke-linecap="round" stroke-linejoin="round"/>
<path d="M12.5831 12.9573H8.43848" stroke="#5C5967" stroke-miterlimit="10" stroke-linecap="round" stroke-linejoin="round"/>
</svg>
