<svg width="22" height="21" viewBox="0 0 22 21" fill="none" xmlns="http://www.w3.org/2000/svg">
<path d="M10.9215 19.8791C10.2935 19.8791 9.70189 19.5777 9.28324 19.0525L7.91807 17.3302C7.89076 17.2958 7.78155 17.2527 7.73604 17.2441H7.28098C3.4858 17.2441 1.1377 16.2711 1.1377 11.4317V7.12617C1.1377 3.32009 3.25827 1.31372 7.28098 1.31372H14.5619C18.5846 1.31372 20.7052 3.32009 20.7052 7.12617V11.4317C20.7052 15.2378 18.5846 17.2441 14.5619 17.2441H14.1069C14.034 17.2441 13.9703 17.2786 13.9248 17.3302L12.5597 19.0525C12.141 19.5777 11.5494 19.8791 10.9215 19.8791ZM7.28098 2.60538C4.02277 2.60538 2.50287 4.04342 2.50287 7.12617V11.4317C2.50287 15.3239 3.91355 15.9525 7.28098 15.9525H7.73604C8.2002 15.9525 8.72807 16.2022 9.01021 16.5553L10.3754 18.2775C10.6939 18.6736 11.149 18.6736 11.4675 18.2775L12.8327 16.5553C13.133 16.1764 13.6063 15.9525 14.1069 15.9525H14.5619C17.8201 15.9525 19.34 14.5144 19.34 11.4317V7.12617C19.34 4.04342 17.8201 2.60538 14.5619 2.60538H7.28098Z" fill="#5C5967"/>
<path d="M10.9213 10.5706C10.4117 10.5706 10.0112 10.1831 10.0112 9.70949C10.0112 9.23589 10.4208 8.84839 10.9213 8.84839C11.4219 8.84839 11.8315 9.23589 11.8315 9.70949C11.8315 10.1831 11.431 10.5706 10.9213 10.5706Z" fill="#5C5967"/>
<path d="M14.562 10.5706C14.0523 10.5706 13.6519 10.1831 13.6519 9.70949C13.6519 9.23589 14.0614 8.84839 14.562 8.84839C15.0625 8.84839 15.4721 9.23589 15.4721 9.70949C15.4721 10.1831 15.0716 10.5706 14.562 10.5706Z" fill="#5C5967"/>
<path d="M7.28072 10.5706C6.77106 10.5706 6.37061 10.1831 6.37061 9.70949C6.37061 9.23589 6.78016 8.84839 7.28072 8.84839C7.78129 8.84839 8.19084 9.23589 8.19084 9.70949C8.19084 10.1831 7.79039 10.5706 7.28072 10.5706Z" fill="#5C5967"/>
</svg>
