<svg width="29" height="30" viewBox="0 0 29 30" fill="none" xmlns="http://www.w3.org/2000/svg">
<path d="M14.9496 15.8437C15.5963 15.8437 16.1205 15.2981 16.1205 14.625C16.1205 13.9519 15.5963 13.4062 14.9496 13.4062C14.303 13.4062 13.7788 13.9519 13.7788 14.625C13.7788 15.2981 14.303 15.8437 14.9496 15.8437Z" stroke="black" stroke-width="2" stroke-linecap="round" stroke-linejoin="round"/>
<path d="M14.9496 7.3125C15.5963 7.3125 16.1205 6.76685 16.1205 6.09375C16.1205 5.42065 15.5963 4.875 14.9496 4.875C14.303 4.875 13.7788 5.42065 13.7788 6.09375C13.7788 6.76685 14.303 7.3125 14.9496 7.3125Z" stroke="black" stroke-width="2" stroke-linecap="round" stroke-linejoin="round"/>
<path d="M14.9496 24.375C15.5963 24.375 16.1205 23.8293 16.1205 23.1562C16.1205 22.4832 15.5963 21.9375 14.9496 21.9375C14.303 21.9375 13.7788 22.4832 13.7788 23.1562C13.7788 23.8293 14.303 24.375 14.9496 24.375Z" stroke="black" stroke-width="2" stroke-linecap="round" stroke-linejoin="round"/>
</svg>
