<svg width="26" height="24" viewBox="0 0 26 24" fill="none" xmlns="http://www.w3.org/2000/svg">
<g clip-path="url(#clip0_564_11367)">
<path d="M10.2793 21C8.82447 21 7.45724 20.7373 6.17766 20.212C4.89807 19.6873 3.78501 18.975 2.83847 18.075C1.89193 17.175 1.14276 16.1167 0.590957 14.9C0.0384572 13.6833 -0.237793 12.3833 -0.237793 11C-0.237793 9.61667 0.0384572 8.31667 0.590957 7.1C1.14276 5.88333 1.89193 4.825 2.83847 3.925C3.78501 3.025 4.89807 2.31233 6.17766 1.787C7.45724 1.26233 8.82447 1 10.2793 1C11.7342 1 13.1014 1.26233 14.381 1.787C15.6606 2.31233 16.7737 3.025 17.7202 3.925C18.6668 4.825 19.4159 5.88333 19.9677 7.1C20.5202 8.31667 20.7965 9.61667 20.7965 11C20.7965 12.3833 20.5202 13.6833 19.9677 14.9C19.4159 16.1167 18.6668 17.175 17.7202 18.075C16.7737 18.975 15.6606 19.6873 14.381 20.212C13.1014 20.7373 11.7342 21 10.2793 21ZM10.2793 19C12.6282 19 14.6177 18.225 16.2478 16.675C17.878 15.125 18.693 13.2333 18.693 11C18.693 9.93333 18.4827 8.90833 18.062 7.925C17.6413 6.94167 17.0366 6.075 16.2478 5.325L10.2793 11V3C7.93051 3 5.94102 3.775 4.31087 5.325C2.68071 6.875 1.86563 8.76667 1.86563 11C1.86563 13.2333 2.68071 15.125 4.31087 16.675C5.94102 18.225 7.93051 19 10.2793 19Z" fill="#4BA665"/>
</g>
<defs>
<clipPath id="clip0_564_11367">
<rect width="25.2411" height="24" fill="white" transform="translate(0.484863)"/>
</clipPath>
</defs>
</svg>
