<svg width="23" height="21" viewBox="0 0 23 21" fill="none" xmlns="http://www.w3.org/2000/svg">
<path d="M6.27153 0.171559C6.22145 0.117181 6.16194 0.0740346 6.09641 0.0445946C6.03089 0.0151546 5.96064 0 5.88969 0C5.81874 0 5.74849 0.0151546 5.68297 0.0445946C5.61744 0.0740346 5.55793 0.117181 5.50785 0.171559L2.64722 3.24892L1.6275 2.17371C1.57742 2.11934 1.51791 2.07619 1.45238 2.04675C1.38686 2.01731 1.31661 2.00216 1.24566 2.00216C1.17471 2.00216 1.10446 2.01731 1.03894 2.04675C0.973414 2.07619 0.913905 2.11934 0.863824 2.17371L0.15855 2.93783C0.108295 2.99202 0.0684206 3.05641 0.041213 3.12731C0.0140054 3.19821 0 3.27423 0 3.351C0 3.42777 0.0140054 3.50378 0.041213 3.57468C0.0684206 3.64558 0.108295 3.70997 0.15855 3.76416L2.29638 6.06817C2.40309 6.17793 2.54469 6.23913 2.69192 6.23913C2.83915 6.23913 2.98075 6.17793 3.08746 6.06817L3.78779 5.30892L7.03116 1.79992C7.13221 1.69049 7.18931 1.54235 7.19007 1.38765C7.19082 1.23295 7.13518 1.08417 7.0352 0.973588L6.27153 0.171559ZM6.27153 7.90943C6.22145 7.85506 6.16194 7.81191 6.09641 7.78247C6.03089 7.75303 5.96064 7.73788 5.88969 7.73788C5.81874 7.73788 5.74849 7.75303 5.68297 7.78247C5.61744 7.81191 5.55793 7.85506 5.50785 7.90943L2.64722 11.0067L1.6275 9.93249C1.57742 9.87811 1.51791 9.83497 1.45238 9.80553C1.38686 9.77609 1.31661 9.76093 1.24566 9.76093C1.17471 9.76093 1.10446 9.77609 1.03894 9.80553C0.973414 9.83497 0.913905 9.87811 0.863824 9.93249L0.15855 10.6951C0.108295 10.7493 0.0684206 10.8137 0.041213 10.8846C0.0140054 10.9555 0 11.0315 0 11.1083C0 11.1851 0.0140054 11.2611 0.041213 11.332C0.0684206 11.4029 0.108295 11.4673 0.15855 11.5215L2.29099 13.8303C2.39763 13.9401 2.53915 14.0013 2.68631 14.0013C2.83346 14.0013 2.97499 13.9401 3.08162 13.8303L3.78689 13.0677L7.03026 9.55724C7.13092 9.44857 7.18783 9.30126 7.18859 9.1474C7.18935 8.99354 7.13389 8.84559 7.0343 8.73577L6.27153 7.90943ZM2.87498 16.3337C1.685 16.3337 0.692223 17.3787 0.692223 18.6668C0.692223 19.9549 1.6859 21 2.87498 21C3.44685 21 3.9953 20.7542 4.39968 20.3166C4.80406 19.8791 5.03123 19.2856 5.03123 18.6668C5.03123 18.048 4.80406 17.4546 4.39968 17.017C3.9953 16.5795 3.44685 16.3337 2.87498 16.3337ZM22.2812 17.1114H9.34374C9.15311 17.1114 8.97029 17.1933 8.8355 17.3392C8.70071 17.485 8.62499 17.6828 8.62499 17.8891V19.4445C8.62499 19.6508 8.70071 19.8486 8.8355 19.9945C8.97029 20.1403 9.15311 20.2223 9.34374 20.2223H22.2812C22.4719 20.2223 22.6547 20.1403 22.7895 19.9945C22.9243 19.8486 23 19.6508 23 19.4445V17.8891C23 17.6828 22.9243 17.485 22.7895 17.3392C22.6547 17.1933 22.4719 17.1114 22.2812 17.1114ZM22.2812 1.55688H9.34374C9.15311 1.55688 8.97029 1.63882 8.8355 1.78467C8.70071 1.93052 8.62499 2.12834 8.62499 2.33461V3.89006C8.62499 4.09632 8.70071 4.29414 8.8355 4.43999C8.97029 4.58584 9.15311 4.66778 9.34374 4.66778H22.2812C22.4719 4.66778 22.6547 4.58584 22.7895 4.43999C22.9243 4.29414 23 4.09632 23 3.89006V2.33461C23 2.12834 22.9243 1.93052 22.7895 1.78467C22.6547 1.63882 22.4719 1.55688 22.2812 1.55688ZM22.2812 9.33413H9.34374C9.15311 9.33413 8.97029 9.41607 8.8355 9.56192C8.70071 9.70777 8.62499 9.90559 8.62499 10.1119V11.6673C8.62499 11.8736 8.70071 12.0714 8.8355 12.2172C8.97029 12.3631 9.15311 12.445 9.34374 12.445H22.2812C22.4719 12.445 22.6547 12.3631 22.7895 12.2172C22.9243 12.0714 23 11.8736 23 11.6673V10.1119C23 9.90559 22.9243 9.70777 22.7895 9.56192C22.6547 9.41607 22.4719 9.33413 22.2812 9.33413Z" fill="black"/>
</svg>
